<?xml version="1.0" standalone="no"?>
<!DOCTYPE svg PUBLIC "-//W3C//DTD SVG 20010904//EN"
 "http://www.w3.org/TR/2001/REC-SVG-20010904/DTD/svg10.dtd">
<svg version="1.0" xmlns="http://www.w3.org/2000/svg"
 width="569.000000pt" height="571.000000pt" viewBox="0 0 569.000000 571.000000"
 preserveAspectRatio="xMidYMid meet">

<g transform="translate(0.000000,571.000000) scale(0.100000,-0.100000)"
fill="#000000" stroke="none">
<path d="M1935 5229 c-22 -4 -73 -12 -112 -19 -40 -6 -73 -15 -73 -19 0 -9
139 -175 150 -179 5 -2 15 18 23 45 8 26 25 72 36 102 28 71 26 78 -24 70z m5
-36 c0 -19 -45 -133 -51 -131 -10 4 -89 101 -89 110 0 4 17 10 38 13 20 4 42
8 47 10 19 7 55 5 55 -2z"/>
<path d="M854 4659 c3 -19 10 -73 17 -121 6 -49 14 -88 18 -88 14 2 191 149
184 153 -4 3 -51 22 -103 42 -52 20 -101 39 -108 42 -10 4 -12 -3 -8 -28z
m101 -36 c36 -15 65 -30 65 -34 0 -6 -105 -89 -113 -89 -3 0 -8 21 -11 48 -4
26 -9 59 -12 75 -3 15 -3 27 0 27 3 0 35 -12 71 -27z"/>
<path d="M3850 4627 c-39 -19 -62 -74 -49 -120 26 -96 168 -93 193 5 21 85
-65 154 -144 115z m102 -34 c36 -32 25 -110 -17 -127 -76 -29 -142 44 -104
115 21 40 83 46 121 12z"/>
<path d="M2768 4112 c-19 -10 -41 -32 -51 -54 -16 -33 -16 -40 -4 -71 29 -68
105 -89 162 -43 26 21 30 30 30 75 0 57 -20 85 -72 100 -24 7 -40 5 -65 -7z
m81 -22 c10 -5 24 -23 31 -40 33 -79 -65 -146 -125 -85 -31 30 -32 73 -4 109
22 28 64 35 98 16z"/>
<path d="M1276 3085 c-55 -30 -101 -57 -103 -59 -2 -2 42 -31 98 -65 56 -34
103 -60 104 -59 7 9 15 238 8 238 -4 0 -53 -25 -107 -55z m84 -60 c0 -41 -4
-75 -9 -75 -18 0 -121 65 -118 74 3 8 114 75 125 76 1 0 2 -34 2 -75z"/>
<path d="M3512 2971 c-51 -33 -93 -63 -93 -68 0 -4 5 -11 13 -16 55 -31 179
-97 183 -97 3 0 5 54 5 120 0 66 -3 120 -7 120 -5 0 -50 -27 -101 -59z m82
-22 c7 -37 8 -119 1 -119 -16 0 -135 74 -128 80 13 12 107 70 114 70 4 0 9
-14 13 -31z"/>
<path d="M5450 2571 c0 -67 2 -121 5 -121 5 0 116 65 183 107 29 18 30 16
-100 87 l-88 48 0 -121z m158 4 c3 -3 -127 -85 -134 -85 -2 0 -4 36 -4 81 l0
81 68 -38 c37 -20 68 -38 70 -39z"/>
<path d="M304 2281 c-12 -5 -31 -22 -43 -37 -49 -63 -3 -154 79 -154 52 0 76
13 96 52 32 61 -8 134 -77 143 -19 3 -44 1 -55 -4z m99 -38 c24 -23 22 -81 -5
-110 -61 -65 -172 19 -123 93 29 45 88 53 128 17z"/>
<path d="M4757 1359 c-21 -12 -47 -61 -47 -89 0 -84 103 -130 168 -75 74 62
29 176 -70 175 -18 0 -41 -5 -51 -11z m107 -30 c54 -42 18 -139 -53 -139 -33
0 -81 48 -81 80 0 10 12 32 26 49 31 37 69 41 108 10z"/>
<path d="M835 1312 c-51 -17 -75 -50 -75 -102 0 -42 15 -67 50 -85 53 -27 111
-12 136 36 31 60 11 120 -48 143 -21 9 -39 16 -41 15 -1 -1 -11 -4 -22 -7z
m80 -47 c29 -28 32 -61 9 -93 -47 -67 -144 -34 -144 49 0 31 44 69 80 69 19 0
40 -9 55 -25z"/>
<path d="M3843 841 c-66 -41 -61 -141 9 -177 68 -35 143 13 143 92 0 81 -83
128 -152 85z m120 -49 c19 -32 19 -36 3 -68 -20 -43 -58 -60 -98 -43 -34 14
-48 37 -48 78 0 46 32 73 83 69 35 -3 44 -8 60 -36z"/>
<path d="M5428 652 c-54 -31 -98 -59 -98 -62 0 -5 11 -12 133 -79 l77 -42 0
120 c0 67 -3 121 -7 121 -5 -1 -52 -27 -105 -58z m92 -69 c0 -38 -4 -63 -11
-63 -13 0 -129 63 -129 70 0 3 28 21 63 41 40 23 65 32 69 25 4 -6 8 -39 8
-73z"/>
<path d="M4710 173 c-51 -19 -80 -86 -57 -133 l15 -30 -1351 -3 c-1089 -2
-1018 -2 368 -2 946 0 1591 2 1433 5 -252 4 -286 7 -278 20 5 8 10 31 10 50
-1 69 -73 118 -140 93z m98 -49 c26 -29 28 -61 6 -92 -12 -17 -25 -22 -61 -22
-56 0 -83 21 -83 65 0 78 85 108 138 49z"/>
<path d="M403 3 c59 -2 154 -2 210 0 56 1 8 3 -108 3 -116 0 -161 -2 -102 -3z"/>
</g>
</svg>
